<?xml version="1.0" encoding="iso-8859-1"?>
<!-- Generator: Adobe Illustrator 19.0.0, SVG Export Plug-In . SVG Version: 6.00 Build 0)  -->
<svg version="1.1" id="Layer_1" xmlns="http://www.w3.org/2000/svg" xmlns:xlink="http://www.w3.org/1999/xlink" x="0px" y="0px"
	 viewBox="0 0 512.001 512.001" style="enable-background:new 0 0 512.001 512.001;" xml:space="preserve">
<circle style="fill:#FC675B;" cx="256.568" cy="279.864" r="214.509"/>
<path style="fill:#E8564F;" d="M102.28,279.862c0-108.249,80.188-197.753,184.4-212.393c-9.839-1.382-19.886-2.114-30.107-2.114
	c-118.469,0-214.507,96.038-214.507,214.507s96.038,214.507,214.507,214.507c10.22,0,20.268-0.731,30.107-2.114
	C182.468,477.616,102.28,388.111,102.28,279.862z"/>
<g>
	<path style="fill:#4D4D4D;" d="M361.215,92.562c-12.628,45.937-54.7,79.681-104.639,79.681c-49.951,0-92.011-33.756-104.639-79.681
		c30.946-17.331,66.64-27.206,104.639-27.206S330.27,75.231,361.215,92.562z"/>
	<circle style="fill:#4D4D4D;" cx="352.272" cy="332.12" r="58.237"/>
	<circle style="fill:#4D4D4D;" cx="372.299" cy="206.48" r="28.483"/>
	<circle style="fill:#4D4D4D;" cx="160.876" cy="332.12" r="58.237"/>
	<circle style="fill:#4D4D4D;" cx="140.861" cy="206.48" r="28.483"/>
</g>
<path d="M284.862,332.122c0,36.856,29.984,66.839,66.838,66.839c12.091,0,23.942-3.265,34.271-9.444
	c4.078-2.438,5.405-7.721,2.966-11.798c-2.441-4.079-7.723-5.403-11.799-2.966c-7.66,4.582-16.456,7.003-25.438,7.003
	c-27.368,0-49.633-22.266-49.633-49.634c0-27.368,22.265-49.634,49.633-49.634c27.368,0,49.634,22.266,49.634,49.634
	c0,8.027-1.854,15.683-5.51,22.756c-2.182,4.22-0.53,9.41,3.691,11.591c4.219,2.182,9.409,0.53,11.591-3.691
	c4.862-9.404,7.431-20.006,7.431-30.657c0-36.855-29.984-66.839-66.839-66.839C314.846,265.282,284.862,295.266,284.862,332.122z"/>
<path d="M408.807,206.483c0-20.448-16.637-37.085-37.085-37.085s-37.085,16.637-37.085,37.085s16.637,37.085,37.085,37.085
	S408.807,226.933,408.807,206.483z M351.841,206.483c0-10.962,8.918-19.881,19.881-19.881s19.881,8.919,19.881,19.881
	s-8.918,19.881-19.881,19.881S351.841,217.446,351.841,206.483z"/>
<path d="M160.307,398.961c36.856,0,66.839-29.984,66.839-66.839s-29.984-66.839-66.839-66.839s-66.838,29.984-66.838,66.839
	C93.468,368.976,123.452,398.961,160.307,398.961z M160.307,282.487c27.368,0,49.634,22.266,49.634,49.634
	c0,27.369-22.266,49.634-49.634,49.634s-49.634-22.266-49.634-49.634C110.672,304.752,132.937,282.487,160.307,282.487z"/>
<path d="M140.287,243.569c20.448,0,37.085-16.637,37.085-37.085s-16.637-37.085-37.085-37.085s-37.085,16.637-37.085,37.085
	S119.838,243.569,140.287,243.569z M140.287,186.603c10.963,0,19.881,8.919,19.881,19.881s-8.918,19.881-19.881,19.881
	s-19.881-8.919-19.881-19.881S129.324,186.603,140.287,186.603z"/>
<path d="M503.398,271.259h-24.47c-2.053-53.87-23.289-102.907-57.068-140.456l26.823-26.823c3.359-3.36,3.359-8.805,0-12.165
	c-3.361-3.358-8.807-3.36-12.166,0l-26.639,26.639c-33.127-31.596-75.938-53.111-123.465-59.619
	c0.115-1.865,0.372-4.115,0.899-6.658c2.174-10.46,7.546-20.037,15.973-28.462c3.359-3.36,3.359-8.805,0-12.165
	c-3.361-3.358-8.807-3.36-12.166,0c-16.912,16.912-21.049,34.81-21.822,45.611c-4.401-0.26-8.831-0.407-13.296-0.407
	c-4.455,0-8.887,0.143-13.297,0.403c-0.774-10.802-4.913-28.697-21.821-45.606c-3.361-3.36-8.807-3.36-12.166,0
	s-3.36,8.807,0,12.165c13.595,13.595,16.458,27.56,16.898,35.116c-46.695,6.355-89.793,27.236-123.585,59.529L75.484,91.814
	c-3.361-3.36-8.807-3.36-12.166,0c-3.36,3.36-3.36,8.807,0,12.165l26.719,26.719c-7.78,8.673-14.946,18.024-21.411,28.001
	c-2.584,3.987-1.446,9.313,2.542,11.898c3.987,2.584,9.313,1.445,11.896-2.542c16.685-25.751,38.426-46.965,63.471-62.692
	c16.075,42.29,55.563,71.81,100.869,75.155v211.77c0,4.751,3.85,8.602,8.602,8.602c4.752,0,8.602-3.852,8.602-8.602V180.535
	c37.678-2.708,71.388-23.113,91.362-55.761c2.48-4.052,1.204-9.348-2.848-11.828c-4.05-2.477-9.347-1.204-11.828,2.849
	c-18.332,29.965-50.216,47.854-85.288,47.854c-42.586,0-80.427-27.198-94.305-66.91c28.675-14.763,60.861-22.781,94.3-22.781
	c113.536,0,205.905,92.369,205.905,205.905c0,110.652-87.738,201.183-197.298,205.711v-65.759c0-4.751-3.85-8.602-8.602-8.602
	s-8.602,3.852-8.602,8.602v65.759C137.841,481.05,50.098,390.518,50.098,279.863c0-30.182,6.378-59.258,18.956-86.42
	c1.996-4.312,0.119-9.425-4.191-11.421c-4.314-1.997-9.426-0.12-11.42,4.191c-12.436,26.853-19.26,55.426-20.369,85.048H8.602
	C3.85,271.26,0,275.112,0,279.863s3.85,8.602,8.602,8.602h24.47c2.115,55.497,24.591,105.86,60.163,143.821l-14.918,14.918
	c-3.36,3.359-3.36,8.807,0,12.165c1.68,1.68,3.883,2.52,6.084,2.52s4.403-0.84,6.084-2.52l14.983-14.983
	c39.71,36.364,92.573,58.586,150.533,58.586s110.824-22.222,150.533-58.586l14.983,14.983c1.68,1.68,3.881,2.52,6.084,2.52
	c2.201,0,4.403-0.84,6.084-2.52c3.359-3.359,3.359-8.805,0-12.165l-14.918-14.918c35.571-37.962,58.048-88.324,60.163-143.821h24.47
	c4.752,0,8.602-3.852,8.602-8.602S508.148,271.259,503.398,271.259z"/>
<circle cx="87.733" cy="261.65" r="8.602"/>
<circle cx="424.28" cy="261.65" r="8.602"/>
<circle cx="290.324" cy="105.787" r="8.602"/>
<circle cx="221.677" cy="105.787" r="8.602"/>
<g>
</g>
<g>
</g>
<g>
</g>
<g>
</g>
<g>
</g>
<g>
</g>
<g>
</g>
<g>
</g>
<g>
</g>
<g>
</g>
<g>
</g>
<g>
</g>
<g>
</g>
<g>
</g>
<g>
</g>
</svg>
